# MagicaVoxel @ Ephtracy

# group
o 

# material
mtllib Mouse.mtl
usemtl palette

# normals
vn -1 0 0
vn 1 0 0
vn 0 0 1
vn 0 0 -1
vn 0 -1 0
vn 0 1 0

# texcoords
vt 0.841797 0.5
vt 0.982422 0.5
vt 0.994141 0.5

# verts
v -0.5 0.8 0.3
v -0.5 0.8 -0.2
v -0.5 1 0.3
v -0.5 1 -0.2
v -0.4 0 0.3
v -0.4 0 -0.2
v -0.4 0.8 0.3
v -0.4 0.8 -0.2
v 0.1 0.9 0.3
v 0.1 0.9 -0.2
v 0.1 1 0.3
v 0.1 1 -0.2
v 0.2 1 -0.9
v 0.2 1 -1
v 0.2 1.1 -0.9
v 0.2 1.1 -1
v -0.2 0.9 0.3
v -0.2 0.9 -0.2
v -0.2 1 0.3
v -0.2 1 -0.2
v 0.3 0 0.3
v 0.3 0 -0.2
v 0.3 0.8 0.3
v 0.3 0.8 -0.2
v 0.3 1 -0.9
v 0.3 1 -1
v 0.3 1.1 -0.9
v 0.3 1.1 -1
v 0.4 0.8 0.3
v 0.4 0.8 -0.2
v 0.4 1 0.3
v 0.4 1 -0.2
v -0.5 0.8 0.3
v -0.5 1 0.3
v -0.4 0 0.3
v -0.4 0.8 0.3
v -0.4 0.9 0.3
v -0.3 0 0.3
v -0.3 0.6 0.3
v -0.3 0.7 0.3
v -0.3 0.8 0.3
v -0.2 0.2 0.3
v -0.2 0.3 0.3
v -0.2 0.8 0.3
v -0.2 0.9 0.3
v -0.2 1 0.3
v -0.1 0.3 0.3
v -0.1 0.4 0.3
v -0.1 0.6 0.3
v -0.1 0.7 0.3
v 0 0.3 0.3
v 0 0.4 0.3
v 0 0.6 0.3
v 0 0.7 0.3
v 0.1 0.2 0.3
v 0.1 0.3 0.3
v 0.1 0.8 0.3
v 0.1 0.9 0.3
v 0.1 1 0.3
v 0.2 0 0.3
v 0.2 0.6 0.3
v 0.2 0.7 0.3
v 0.2 0.8 0.3
v 0.3 0 0.3
v 0.3 0.8 0.3
v 0.3 0.9 0.3
v 0.4 0.8 0.3
v 0.4 1 0.3
v 0.2 1 -0.9
v 0.2 1.1 -0.9
v 0.3 1 -0.9
v 0.3 1.1 -0.9
v -0.5 0.8 -0.2
v -0.5 1 -0.2
v -0.4 0 -0.2
v -0.4 0.8 -0.2
v -0.4 0.9 -0.2
v -0.3 0 -0.2
v -0.3 0.8 -0.2
v -0.2 0.8 -0.2
v -0.2 0.9 -0.2
v -0.2 1 -0.2
v 0.1 0.8 -0.2
v 0.1 0.9 -0.2
v 0.1 1 -0.2
v 0.2 0 -0.2
v 0.2 0.8 -0.2
v 0.3 0 -0.2
v 0.3 0.8 -0.2
v 0.3 0.9 -0.2
v 0.4 0.8 -0.2
v 0.4 1 -0.2
v 0.2 1 -1
v 0.2 1.1 -1
v 0.3 1 -1
v 0.3 1.1 -1
v -0.4 0 0.3
v -0.3 0 0.3
v 0.2 0 0.3
v 0.3 0 0.3
v -0.4 0 -0.2
v -0.3 0 -0.2
v 0.2 0 -0.2
v 0.3 0 -0.2
v -0.5 0.8 0.3
v -0.4 0.8 0.3
v 0.3 0.8 0.3
v 0.4 0.8 0.3
v -0.5 0.8 -0.2
v -0.4 0.8 -0.2
v 0.3 0.8 -0.2
v 0.4 0.8 -0.2
v 0.2 1 -0.9
v 0.3 1 -0.9
v 0.2 1 -1
v 0.3 1 -1
v -0.2 0.9 0.3
v 0.1 0.9 0.3
v -0.2 0.9 -0.2
v 0.1 0.9 -0.2
v -0.5 1 0.3
v -0.2 1 0.3
v 0.1 1 0.3
v 0.4 1 0.3
v -0.5 1 -0.2
v -0.2 1 -0.2
v 0.1 1 -0.2
v 0.4 1 -0.2
v 0.2 1.1 -0.9
v 0.3 1.1 -0.9
v 0.2 1.1 -1
v 0.3 1.1 -1

# faces
f 3/2/1 2/2/1 1/2/1
f 4/2/1 2/2/1 3/2/1
f 7/2/1 6/2/1 5/2/1
f 8/2/1 6/2/1 7/2/1
f 11/2/1 10/2/1 9/2/1
f 12/2/1 10/2/1 11/2/1
f 15/3/1 14/3/1 13/3/1
f 16/3/1 14/3/1 15/3/1
f 17/2/2 18/2/2 19/2/2
f 19/2/2 18/2/2 20/2/2
f 21/2/2 22/2/2 23/2/2
f 23/2/2 22/2/2 24/2/2
f 25/3/2 26/3/2 27/3/2
f 27/3/2 26/3/2 28/3/2
f 29/2/2 30/2/2 31/2/2
f 31/2/2 30/2/2 32/2/2
f 36/2/3 34/2/3 33/2/3
f 37/2/3 34/2/3 36/2/3
f 38/2/3 36/2/3 35/2/3
f 39/2/3 36/2/3 38/2/3
f 40/2/3 36/2/3 39/2/3
f 41/3/3 37/3/3 36/3/3
f 41/2/3 36/2/3 40/2/3
f 42/3/3 39/3/3 38/3/3
f 43/3/3 39/3/3 42/3/3
f 44/3/3 37/3/3 41/3/3
f 44/3/3 41/3/3 40/3/3
f 45/2/3 34/2/3 37/2/3
f 45/3/3 37/3/3 44/3/3
f 46/2/3 34/2/3 45/2/3
f 47/3/3 39/3/3 43/3/3
f 47/1/3 43/1/3 42/1/3
f 48/3/3 39/3/3 47/3/3
f 49/1/3 40/1/3 39/1/3
f 49/3/3 39/3/3 48/3/3
f 50/3/3 44/3/3 40/3/3
f 50/1/3 40/1/3 49/1/3
f 51/1/3 48/1/3 47/1/3
f 51/1/3 47/1/3 42/1/3
f 52/3/3 49/3/3 48/3/3
f 52/1/3 48/1/3 51/1/3
f 52/3/3 50/3/3 49/3/3
f 53/3/3 50/3/3 52/3/3
f 54/3/3 44/3/3 50/3/3
f 54/3/3 50/3/3 53/3/3
f 55/1/3 51/1/3 42/1/3
f 55/3/3 42/3/3 38/3/3
f 56/3/3 53/3/3 52/3/3
f 56/1/3 51/1/3 55/1/3
f 56/3/3 52/3/3 51/3/3
f 57/3/3 44/3/3 54/3/3
f 57/2/3 45/2/3 44/2/3
f 58/2/3 45/2/3 57/2/3
f 60/3/3 55/3/3 38/3/3
f 60/3/3 56/3/3 55/3/3
f 61/3/3 53/3/3 56/3/3
f 61/3/3 56/3/3 60/3/3
f 61/1/3 54/1/3 53/1/3
f 62/3/3 58/3/3 57/3/3
f 62/1/3 54/1/3 61/1/3
f 62/3/3 57/3/3 54/3/3
f 63/3/3 58/3/3 62/3/3
f 64/2/3 61/2/3 60/2/3
f 64/2/3 62/2/3 61/2/3
f 64/2/3 63/2/3 62/2/3
f 65/3/3 58/3/3 63/3/3
f 65/2/3 63/2/3 64/2/3
f 66/2/3 59/2/3 58/2/3
f 66/3/3 58/3/3 65/3/3
f 67/2/3 66/2/3 65/2/3
f 68/2/3 59/2/3 66/2/3
f 68/2/3 66/2/3 67/2/3
f 71/3/3 70/3/3 69/3/3
f 72/3/3 70/3/3 71/3/3
f 73/2/4 74/2/4 76/2/4
f 76/2/4 74/2/4 77/2/4
f 75/2/4 76/2/4 78/2/4
f 76/3/4 77/3/4 79/3/4
f 78/2/4 76/2/4 79/2/4
f 78/3/4 79/3/4 80/3/4
f 79/3/4 77/3/4 80/3/4
f 77/2/4 74/2/4 81/2/4
f 80/3/4 77/3/4 81/3/4
f 81/2/4 74/2/4 82/2/4
f 78/3/4 80/3/4 83/3/4
f 80/2/4 81/2/4 83/2/4
f 83/2/4 81/2/4 84/2/4
f 78/3/4 83/3/4 86/3/4
f 83/3/4 84/3/4 86/3/4
f 86/3/4 84/3/4 87/3/4
f 86/2/4 87/2/4 88/2/4
f 87/3/4 84/3/4 89/3/4
f 88/2/4 87/2/4 89/2/4
f 84/2/4 85/2/4 90/2/4
f 89/3/4 84/3/4 90/3/4
f 89/2/4 90/2/4 91/2/4
f 90/2/4 85/2/4 92/2/4
f 91/2/4 90/2/4 92/2/4
f 93/3/4 94/3/4 95/3/4
f 95/3/4 94/3/4 96/3/4
f 101/2/5 98/2/5 97/2/5
f 102/3/5 99/3/5 98/3/5
f 102/2/5 98/2/5 101/2/5
f 103/2/5 100/2/5 99/2/5
f 103/3/5 99/3/5 102/3/5
f 104/2/5 100/2/5 103/2/5
f 109/2/5 106/2/5 105/2/5
f 110/2/5 106/2/5 109/2/5
f 111/2/5 108/2/5 107/2/5
f 112/2/5 108/2/5 111/2/5
f 115/3/5 114/3/5 113/3/5
f 116/3/5 114/3/5 115/3/5
f 117/2/6 118/2/6 119/2/6
f 119/2/6 118/2/6 120/2/6
f 121/2/6 122/2/6 125/2/6
f 125/2/6 122/2/6 126/2/6
f 123/2/6 124/2/6 127/2/6
f 127/2/6 124/2/6 128/2/6
f 129/3/6 130/3/6 131/3/6
f 131/3/6 130/3/6 132/3/6
