# MagicaVoxel @ Ephtracy

# group
o 

# material
mtllib Leg.mtl
usemtl palette

# normals
vn -1 0 0
vn 1 0 0
vn 0 0 1
vn 0 0 -1
vn 0 -1 0
vn 0 1 0

# texcoords
vt 0.978516 0.5
vt 0.986328 0.5

# verts
v -0.8 0 -0.2
v -0.8 0 -0.7
v -0.8 0.5 -0.2
v -0.8 0.5 -0.7
v -0.7 0.5 -0.2
v -0.7 0.5 -0.3
v -0.7 0.5 -0.4
v -0.7 0.6 -0.2
v -0.7 0.6 -0.3
v -0.7 0.6 -0.4
v -0.6 0.4 0
v -0.6 0.4 -0.2
v -0.6 0.6 -0.2
v -0.6 0.6 -0.3
v -0.6 0.7 0
v -0.6 0.7 -0.2
v -0.6 0.7 -0.3
v -0.5 0 0.4
v -0.5 0 -0.2
v -0.5 0.4 0.4
v -0.5 0.4 0
v -0.5 0.4 -0.2
v 0.3 0.4 0
v 0.3 0.4 -0.2
v 0.3 0.4 -0.3
v 0.3 0.7 0
v 0.3 0.7 -0.2
v 0.3 0.7 -0.3
v 0.4 0.4 -0.3
v 0.4 0.4 -0.4
v 0.4 0.6 -0.3
v 0.4 0.6 -0.4
v 0.5 0 -0.5
v 0.5 0 -0.6
v 0.5 0 -0.7
v 0.5 0.2 -0.6
v 0.5 0.2 -0.7
v 0.5 0.4 -0.4
v 0.5 0.4 -0.5
v 0.5 0.5 -0.4
v 0.5 0.5 -0.7
v -0.4 0 -0.5
v -0.4 0 -0.6
v -0.4 0 -0.7
v -0.4 0.2 -0.6
v -0.4 0.2 -0.7
v -0.4 0.4 -0.4
v -0.4 0.4 -0.5
v -0.4 0.5 -0.4
v -0.4 0.5 -0.7
v -0.3 0.4 -0.3
v -0.3 0.4 -0.4
v -0.3 0.6 -0.3
v -0.3 0.6 -0.4
v -0.2 0.4 0
v -0.2 0.4 -0.2
v -0.2 0.4 -0.3
v -0.2 0.7 0
v -0.2 0.7 -0.2
v -0.2 0.7 -0.3
v 0.6 0 0.4
v 0.6 0 -0.2
v 0.6 0.4 0.4
v 0.6 0.4 0
v 0.6 0.4 -0.2
v 0.7 0.4 0
v 0.7 0.4 -0.2
v 0.7 0.6 -0.2
v 0.7 0.6 -0.3
v 0.7 0.7 0
v 0.7 0.7 -0.2
v 0.7 0.7 -0.3
v 0.8 0.5 -0.2
v 0.8 0.5 -0.3
v 0.8 0.5 -0.4
v 0.8 0.6 -0.2
v 0.8 0.6 -0.3
v 0.8 0.6 -0.4
v 0.9 0 -0.2
v 0.9 0 -0.7
v 0.9 0.5 -0.2
v 0.9 0.5 -0.7
v -0.5 0 0.4
v -0.5 0.4 0.4
v 0.6 0 0.4
v 0.6 0.4 0.4
v -0.6 0.4 0
v -0.6 0.7 0
v -0.5 0.4 0
v -0.2 0.4 0
v -0.2 0.7 0
v 0.3 0.4 0
v 0.3 0.7 0
v 0.6 0.4 0
v 0.7 0.4 0
v 0.7 0.7 0
v -0.8 0 -0.2
v -0.8 0.5 -0.2
v -0.7 0.5 -0.2
v -0.7 0.6 -0.2
v -0.6 0.4 -0.2
v -0.6 0.6 -0.2
v -0.5 0 -0.2
v -0.5 0.4 -0.2
v 0.6 0 -0.2
v 0.6 0.4 -0.2
v 0.7 0.4 -0.2
v 0.7 0.6 -0.2
v 0.8 0.5 -0.2
v 0.8 0.6 -0.2
v 0.9 0 -0.2
v 0.9 0.5 -0.2
v -0.6 0.6 -0.3
v -0.6 0.7 -0.3
v -0.3 0.4 -0.3
v -0.3 0.6 -0.3
v -0.2 0.4 -0.3
v -0.2 0.7 -0.3
v 0.3 0.4 -0.3
v 0.3 0.7 -0.3
v 0.4 0.4 -0.3
v 0.4 0.6 -0.3
v 0.7 0.6 -0.3
v 0.7 0.7 -0.3
v -0.7 0.5 -0.4
v -0.7 0.6 -0.4
v -0.4 0.4 -0.4
v -0.4 0.5 -0.4
v -0.3 0.4 -0.4
v -0.3 0.6 -0.4
v 0.4 0.4 -0.4
v 0.4 0.6 -0.4
v 0.5 0.4 -0.4
v 0.5 0.5 -0.4
v 0.8 0.5 -0.4
v 0.8 0.6 -0.4
v -0.4 0 -0.5
v -0.4 0.4 -0.5
v 0.5 0 -0.5
v 0.5 0.4 -0.5
v -0.8 0 -0.7
v -0.8 0.5 -0.7
v -0.7 0 -0.7
v -0.7 0.2 -0.7
v -0.6 0 -0.7
v -0.6 0.2 -0.7
v -0.5 0 -0.7
v -0.5 0.2 -0.7
v -0.4 0 -0.7
v -0.4 0.2 -0.7
v -0.4 0.5 -0.7
v 0.5 0 -0.7
v 0.5 0.2 -0.7
v 0.5 0.5 -0.7
v 0.6 0 -0.7
v 0.6 0.2 -0.7
v 0.7 0 -0.7
v 0.7 0.2 -0.7
v 0.8 0 -0.7
v 0.8 0.2 -0.7
v 0.9 0 -0.7
v 0.9 0.5 -0.7
v -0.5 0 0.4
v 0.6 0 0.4
v -0.8 0 -0.2
v -0.5 0 -0.2
v 0.6 0 -0.2
v 0.9 0 -0.2
v -0.4 0 -0.5
v 0.5 0 -0.5
v -0.7 0 -0.6
v -0.6 0 -0.6
v -0.5 0 -0.6
v -0.4 0 -0.6
v 0.5 0 -0.6
v 0.6 0 -0.6
v 0.7 0 -0.6
v 0.8 0 -0.6
v -0.8 0 -0.7
v -0.7 0 -0.7
v -0.6 0 -0.7
v -0.5 0 -0.7
v -0.4 0 -0.7
v 0.5 0 -0.7
v 0.6 0 -0.7
v 0.7 0 -0.7
v 0.8 0 -0.7
v 0.9 0 -0.7
v -0.6 0.4 0
v -0.5 0.4 0
v 0.6 0.4 0
v 0.7 0.4 0
v -0.6 0.4 -0.2
v -0.5 0.4 -0.2
v 0.6 0.4 -0.2
v 0.7 0.4 -0.2
v -0.5 0.4 0.4
v 0.6 0.4 0.4
v -0.5 0.4 0
v -0.2 0.4 0
v 0.3 0.4 0
v 0.6 0.4 0
v -0.2 0.4 -0.2
v 0.3 0.4 -0.2
v -0.3 0.4 -0.3
v -0.2 0.4 -0.3
v 0.3 0.4 -0.3
v 0.4 0.4 -0.3
v -0.4 0.4 -0.4
v -0.3 0.4 -0.4
v 0.4 0.4 -0.4
v 0.5 0.4 -0.4
v -0.4 0.4 -0.5
v 0.5 0.4 -0.5
v -0.8 0.5 -0.2
v -0.7 0.5 -0.2
v 0.8 0.5 -0.2
v 0.9 0.5 -0.2
v -0.7 0.5 -0.3
v 0.8 0.5 -0.3
v -0.7 0.5 -0.4
v -0.4 0.5 -0.4
v 0.5 0.5 -0.4
v 0.8 0.5 -0.4
v -0.8 0.5 -0.7
v -0.4 0.5 -0.7
v 0.5 0.5 -0.7
v 0.9 0.5 -0.7
v -0.7 0.6 -0.2
v -0.6 0.6 -0.2
v 0.7 0.6 -0.2
v 0.8 0.6 -0.2
v -0.7 0.6 -0.3
v -0.6 0.6 -0.3
v -0.3 0.6 -0.3
v 0.4 0.6 -0.3
v 0.7 0.6 -0.3
v 0.8 0.6 -0.3
v -0.7 0.6 -0.4
v -0.3 0.6 -0.4
v 0.4 0.6 -0.4
v 0.8 0.6 -0.4
v -0.6 0.7 0
v -0.2 0.7 0
v 0.3 0.7 0
v 0.7 0.7 0
v -0.6 0.7 -0.2
v -0.2 0.7 -0.2
v 0.3 0.7 -0.2
v 0.7 0.7 -0.2
v -0.6 0.7 -0.3
v -0.2 0.7 -0.3
v 0.3 0.7 -0.3
v 0.7 0.7 -0.3

# faces
f 3/1/1 2/1/1 1/1/1
f 4/1/1 2/1/1 3/1/1
f 8/1/1 6/1/1 5/1/1
f 9/2/1 7/2/1 6/2/1
f 9/1/1 6/1/1 8/1/1
f 10/2/1 7/2/1 9/2/1
f 13/1/1 12/1/1 11/1/1
f 15/1/1 13/1/1 11/1/1
f 16/2/1 14/2/1 13/2/1
f 16/1/1 13/1/1 15/1/1
f 17/2/1 14/2/1 16/2/1
f 20/1/1 19/1/1 18/1/1
f 21/1/1 19/1/1 20/1/1
f 22/1/1 19/1/1 21/1/1
f 26/1/1 24/1/1 23/1/1
f 27/2/1 25/2/1 24/2/1
f 27/1/1 24/1/1 26/1/1
f 28/2/1 25/2/1 27/2/1
f 31/2/1 30/2/1 29/2/1
f 32/2/1 30/2/1 31/2/1
f 36/1/1 34/1/1 33/1/1
f 36/2/1 35/2/1 34/2/1
f 37/2/1 35/2/1 36/2/1
f 39/1/1 36/1/1 33/1/1
f 39/1/1 37/1/1 36/1/1
f 40/1/1 39/1/1 38/1/1
f 41/1/1 37/1/1 39/1/1
f 41/1/1 39/1/1 40/1/1
f 42/1/2 43/1/2 45/1/2
f 43/2/2 44/2/2 45/2/2
f 45/2/2 44/2/2 46/2/2
f 42/1/2 45/1/2 48/1/2
f 45/1/2 46/1/2 48/1/2
f 47/1/2 48/1/2 49/1/2
f 48/1/2 46/1/2 50/1/2
f 49/1/2 48/1/2 50/1/2
f 51/2/2 52/2/2 53/2/2
f 53/2/2 52/2/2 54/2/2
f 55/1/2 56/1/2 58/1/2
f 56/2/2 57/2/2 59/2/2
f 58/1/2 56/1/2 59/1/2
f 59/2/2 57/2/2 60/2/2
f 61/1/2 62/1/2 63/1/2
f 63/1/2 62/1/2 64/1/2
f 64/1/2 62/1/2 65/1/2
f 66/1/2 67/1/2 68/1/2
f 66/1/2 68/1/2 70/1/2
f 68/2/2 69/2/2 71/2/2
f 70/1/2 68/1/2 71/1/2
f 71/2/2 69/2/2 72/2/2
f 73/1/2 74/1/2 76/1/2
f 74/2/2 75/2/2 77/2/2
f 76/1/2 74/1/2 77/1/2
f 77/2/2 75/2/2 78/2/2
f 79/1/2 80/1/2 81/1/2
f 81/1/2 80/1/2 82/1/2
f 85/1/3 84/1/3 83/1/3
f 86/1/3 84/1/3 85/1/3
f 89/1/3 88/1/3 87/1/3
f 90/1/3 88/1/3 89/1/3
f 91/1/3 88/1/3 90/1/3
f 94/1/3 93/1/3 92/1/3
f 95/1/3 93/1/3 94/1/3
f 96/1/3 93/1/3 95/1/3
f 99/1/3 98/1/3 97/1/3
f 101/1/3 99/1/3 97/1/3
f 101/1/3 100/1/3 99/1/3
f 102/1/3 100/1/3 101/1/3
f 103/1/3 101/1/3 97/1/3
f 104/1/3 101/1/3 103/1/3
f 107/1/3 106/1/3 105/1/3
f 109/1/3 108/1/3 107/1/3
f 110/1/3 108/1/3 109/1/3
f 111/1/3 107/1/3 105/1/3
f 111/1/3 109/1/3 107/1/3
f 112/1/3 109/1/3 111/1/3
f 113/2/4 114/2/4 116/2/4
f 115/2/4 116/2/4 117/2/4
f 116/2/4 114/2/4 118/2/4
f 117/2/4 116/2/4 118/2/4
f 119/2/4 120/2/4 121/2/4
f 121/2/4 120/2/4 122/2/4
f 122/2/4 120/2/4 123/2/4
f 123/2/4 120/2/4 124/2/4
f 125/2/4 126/2/4 128/2/4
f 127/2/4 128/2/4 129/2/4
f 128/2/4 126/2/4 130/2/4
f 129/2/4 128/2/4 130/2/4
f 131/2/4 132/2/4 133/2/4
f 133/2/4 132/2/4 134/2/4
f 134/2/4 132/2/4 135/2/4
f 135/2/4 132/2/4 136/2/4
f 137/1/4 138/1/4 139/1/4
f 139/1/4 138/1/4 140/1/4
f 141/1/4 142/1/4 143/1/4
f 143/1/4 142/1/4 144/1/4
f 143/2/4 144/2/4 145/2/4
f 144/1/4 142/1/4 146/1/4
f 145/2/4 144/2/4 146/2/4
f 145/1/4 146/1/4 147/1/4
f 146/1/4 142/1/4 148/1/4
f 147/1/4 146/1/4 148/1/4
f 147/2/4 148/2/4 149/2/4
f 148/1/4 142/1/4 150/1/4
f 149/2/4 148/2/4 150/2/4
f 150/1/4 142/1/4 151/1/4
f 152/2/4 153/2/4 155/2/4
f 153/1/4 154/1/4 156/1/4
f 155/2/4 153/2/4 156/2/4
f 155/1/4 156/1/4 157/1/4
f 156/1/4 154/1/4 158/1/4
f 157/1/4 156/1/4 158/1/4
f 157/2/4 158/2/4 159/2/4
f 158/1/4 154/1/4 160/1/4
f 159/2/4 158/2/4 160/2/4
f 159/1/4 160/1/4 161/1/4
f 160/1/4 154/1/4 162/1/4
f 161/1/4 160/1/4 162/1/4
f 166/1/5 164/1/5 163/1/5
f 167/1/5 164/1/5 166/1/5
f 169/1/5 166/1/5 165/1/5
f 169/1/5 168/1/5 167/1/5
f 169/1/5 167/1/5 166/1/5
f 170/1/5 168/1/5 169/1/5
f 171/1/5 169/1/5 165/1/5
f 172/1/5 169/1/5 171/1/5
f 173/1/5 169/1/5 172/1/5
f 174/1/5 169/1/5 173/1/5
f 175/1/5 168/1/5 170/1/5
f 176/1/5 168/1/5 175/1/5
f 177/1/5 168/1/5 176/1/5
f 178/1/5 168/1/5 177/1/5
f 179/1/5 171/1/5 165/1/5
f 180/2/5 172/2/5 171/2/5
f 180/1/5 171/1/5 179/1/5
f 181/1/5 173/1/5 172/1/5
f 181/2/5 172/2/5 180/2/5
f 182/2/5 174/2/5 173/2/5
f 182/1/5 173/1/5 181/1/5
f 183/2/5 174/2/5 182/2/5
f 184/2/5 176/2/5 175/2/5
f 185/1/5 177/1/5 176/1/5
f 185/2/5 176/2/5 184/2/5
f 186/2/5 178/2/5 177/2/5
f 186/1/5 177/1/5 185/1/5
f 187/1/5 168/1/5 178/1/5
f 187/2/5 178/2/5 186/2/5
f 188/1/5 168/1/5 187/1/5
f 193/1/5 190/1/5 189/1/5
f 194/1/5 190/1/5 193/1/5
f 195/1/5 192/1/5 191/1/5
f 196/1/5 192/1/5 195/1/5
f 197/1/6 198/1/6 199/1/6
f 199/1/6 198/1/6 200/1/6
f 200/1/6 198/1/6 201/1/6
f 201/1/6 198/1/6 202/1/6
f 200/1/6 201/1/6 203/1/6
f 203/1/6 201/1/6 204/1/6
f 203/1/6 204/1/6 206/1/6
f 206/1/6 204/1/6 207/1/6
f 206/1/6 207/1/6 210/1/6
f 207/1/6 208/1/6 210/1/6
f 205/1/6 206/1/6 210/1/6
f 210/1/6 208/1/6 211/1/6
f 209/1/6 210/1/6 213/1/6
f 211/1/6 212/1/6 213/1/6
f 210/1/6 211/1/6 213/1/6
f 213/1/6 212/1/6 214/1/6
f 215/1/6 216/1/6 219/1/6
f 217/1/6 218/1/6 220/1/6
f 215/1/6 219/1/6 221/1/6
f 220/1/6 218/1/6 224/1/6
f 221/1/6 222/1/6 225/1/6
f 215/1/6 221/1/6 225/1/6
f 225/1/6 222/1/6 226/1/6
f 223/1/6 224/1/6 227/1/6
f 224/1/6 218/1/6 228/1/6
f 227/1/6 224/1/6 228/1/6
f 229/1/6 230/1/6 233/1/6
f 233/1/6 230/1/6 234/1/6
f 231/1/6 232/1/6 237/1/6
f 237/1/6 232/1/6 238/1/6
f 234/2/6 235/2/6 239/2/6
f 233/2/6 234/2/6 239/2/6
f 239/2/6 235/2/6 240/2/6
f 237/2/6 238/2/6 241/2/6
f 236/2/6 237/2/6 241/2/6
f 241/2/6 238/2/6 242/2/6
f 243/1/6 244/1/6 247/1/6
f 247/1/6 244/1/6 248/1/6
f 245/1/6 246/1/6 249/1/6
f 249/1/6 246/1/6 250/1/6
f 247/2/6 248/2/6 251/2/6
f 251/2/6 248/2/6 252/2/6
f 249/2/6 250/2/6 253/2/6
f 253/2/6 250/2/6 254/2/6
