# MagicaVoxel @ Ephtracy

# group
o 

# material
mtllib Spine1.mtl
usemtl palette

# normals
vn -1 0 0
vn 1 0 0
vn 0 0 1
vn 0 0 -1
vn 0 -1 0
vn 0 1 0

# texcoords
vt 0.966797 0.5
vt 0.974609 0.5
vt 0.982422 0.5
vt 0.986328 0.5

# verts
v -0.4 0.1 -0.8
v -0.4 0.1 -0.9
v -0.4 0.2 -0.7
v -0.4 0.2 -0.8
v -0.4 0.3 -0.7
v -0.4 0.3 -0.9
v -0.4 0.4 -0.7
v -0.4 0.4 -0.9
v -0.3 0 -0.9
v -0.3 0 -1
v -0.3 0.1 -0.7
v -0.3 0.1 -0.8
v -0.3 0.1 -0.9
v -0.3 0.1 -1
v -0.3 0.1 -1.1
v -0.3 0.2 -0.6
v -0.3 0.2 -0.7
v -0.3 0.2 -0.8
v -0.3 0.3 -0.6
v -0.3 0.3 -0.7
v -0.3 0.3 -0.9
v -0.3 0.3 -1
v -0.3 0.3 -1.1
v -0.3 0.4 -0.9
v -0.3 0.4 -1
v -0.3 0.4 -1.1
v -0.2 0 -0.7
v -0.2 0 -0.8
v -0.2 0 -0.9
v -0.2 0 -1
v -0.2 0 -1.1
v -0.2 0 -1.2
v -0.2 0.1 -0.6
v -0.2 0.1 -0.7
v -0.2 0.1 -0.8
v -0.2 0.1 -0.9
v -0.2 0.1 -1
v -0.2 0.1 -1.1
v -0.2 0.1 -1.2
v -0.2 0.2 -0.5
v -0.2 0.2 -0.6
v -0.2 0.2 -0.7
v -0.2 0.2 -1.2
v -0.2 0.2 -1.3
v -0.2 0.3 -0.5
v -0.2 0.3 -0.6
v -0.2 0.3 -0.7
v -0.2 0.3 -1.1
v -0.2 0.3 -1.3
v -0.2 0.3 -1.4
v -0.2 0.4 -0.6
v -0.2 0.4 -0.7
v -0.2 0.4 -1.1
v -0.2 0.4 -1.3
v -0.2 0.4 -1.4
v -0.1 0 -0.7
v -0.1 0 -0.8
v -0.1 0 -0.9
v -0.1 0 -1
v -0.1 0 -1.1
v -0.1 0 -1.2
v -0.1 0.1 -0.6
v -0.1 0.1 -0.7
v -0.1 0.1 -0.8
v -0.1 0.1 -0.9
v -0.1 0.1 -1
v -0.1 0.1 -1.1
v -0.1 0.1 -1.2
v -0.1 0.2 -0.5
v -0.1 0.2 -0.6
v -0.1 0.2 -0.7
v -0.1 0.2 -1.2
v -0.1 0.2 -1.3
v -0.1 0.3 -0.5
v -0.1 0.3 -0.6
v -0.1 0.3 -0.7
v -0.1 0.3 -1.1
v -0.1 0.3 -1.3
v -0.1 0.3 -1.4
v -0.1 0.4 -0.6
v -0.1 0.4 -0.7
v -0.1 0.4 -1.1
v -0.1 0.4 -1.3
v -0.1 0.4 -1.4
v 0 0 -0.9
v 0 0 -1
v 0 0.1 -0.7
v 0 0.1 -0.8
v 0 0.1 -0.9
v 0 0.1 -1
v 0 0.1 -1.1
v 0 0.2 -0.6
v 0 0.2 -0.7
v 0 0.2 -0.8
v 0 0.3 -0.6
v 0 0.3 -0.7
v 0 0.3 -0.9
v 0 0.3 -1
v 0 0.3 -1.1
v 0 0.4 -0.9
v 0 0.4 -1
v 0 0.4 -1.1
v 0.1 0.1 -0.8
v 0.1 0.1 -0.9
v 0.1 0.2 -0.7
v 0.1 0.2 -0.8
v 0.1 0.3 -0.7
v 0.1 0.3 -0.9
v 0.1 0.4 -0.7
v 0.1 0.4 -0.9
v -0.2 0.2 -0.5
v -0.2 0.3 -0.5
v -0.1 0.2 -0.5
v -0.1 0.3 -0.5
v -0.3 0.2 -0.6
v -0.3 0.3 -0.6
v -0.2 0.1 -0.6
v -0.2 0.2 -0.6
v -0.2 0.3 -0.6
v -0.2 0.4 -0.6
v -0.1 0.1 -0.6
v -0.1 0.2 -0.6
v -0.1 0.3 -0.6
v -0.1 0.4 -0.6
v 0 0.2 -0.6
v 0 0.3 -0.6
v -0.4 0.2 -0.7
v -0.4 0.3 -0.7
v -0.4 0.4 -0.7
v -0.3 0.1 -0.7
v -0.3 0.2 -0.7
v -0.3 0.3 -0.7
v -0.3 0.4 -0.7
v -0.2 0 -0.7
v -0.2 0.1 -0.7
v -0.2 0.2 -0.7
v -0.2 0.3 -0.7
v -0.2 0.4 -0.7
v -0.1 0 -0.7
v -0.1 0.1 -0.7
v -0.1 0.2 -0.7
v -0.1 0.3 -0.7
v -0.1 0.4 -0.7
v 0 0.1 -0.7
v 0 0.2 -0.7
v 0 0.3 -0.7
v 0 0.4 -0.7
v 0.1 0.2 -0.7
v 0.1 0.3 -0.7
v 0.1 0.4 -0.7
v -0.4 0.1 -0.8
v -0.4 0.2 -0.8
v -0.3 0.1 -0.8
v -0.3 0.2 -0.8
v 0 0.1 -0.8
v 0 0.2 -0.8
v 0.1 0.1 -0.8
v 0.1 0.2 -0.8
v -0.3 0 -0.9
v -0.3 0.1 -0.9
v -0.2 0 -0.9
v -0.2 0.1 -0.9
v -0.1 0 -0.9
v -0.1 0.1 -0.9
v 0 0 -0.9
v 0 0.1 -0.9
v -0.4 0.1 -0.9
v -0.4 0.3 -0.9
v -0.4 0.4 -0.9
v -0.3 0.1 -0.9
v -0.3 0.3 -0.9
v -0.3 0.4 -0.9
v 0 0.1 -0.9
v 0 0.3 -0.9
v 0 0.4 -0.9
v 0.1 0.1 -0.9
v 0.1 0.3 -0.9
v 0.1 0.4 -0.9
v -0.3 0 -1
v -0.3 0.1 -1
v -0.2 0 -1
v -0.2 0.1 -1
v -0.1 0 -1
v -0.1 0.1 -1
v 0 0 -1
v 0 0.1 -1
v -0.3 0.1 -1.1
v -0.3 0.3 -1.1
v -0.3 0.4 -1.1
v -0.2 0.1 -1.1
v -0.2 0.3 -1.1
v -0.2 0.4 -1.1
v -0.1 0.1 -1.1
v -0.1 0.3 -1.1
v -0.1 0.4 -1.1
v 0 0.1 -1.1
v 0 0.3 -1.1
v 0 0.4 -1.1
v -0.2 0 -1.2
v -0.2 0.1 -1.2
v -0.2 0.2 -1.2
v -0.1 0 -1.2
v -0.1 0.1 -1.2
v -0.1 0.2 -1.2
v -0.2 0.2 -1.3
v -0.2 0.3 -1.3
v -0.1 0.2 -1.3
v -0.1 0.3 -1.3
v -0.2 0.3 -1.4
v -0.2 0.4 -1.4
v -0.1 0.3 -1.4
v -0.1 0.4 -1.4
v -0.2 0 -0.7
v -0.1 0 -0.7
v -0.2 0 -0.8
v -0.1 0 -0.8
v -0.3 0 -0.9
v -0.2 0 -0.9
v -0.1 0 -0.9
v 0 0 -0.9
v -0.3 0 -1
v -0.2 0 -1
v -0.1 0 -1
v 0 0 -1
v -0.2 0 -1.1
v -0.1 0 -1.1
v -0.2 0 -1.2
v -0.1 0 -1.2
v -0.2 0.1 -0.6
v -0.1 0.1 -0.6
v -0.3 0.1 -0.7
v -0.2 0.1 -0.7
v -0.1 0.1 -0.7
v 0 0.1 -0.7
v -0.4 0.1 -0.8
v -0.3 0.1 -0.8
v -0.2 0.1 -0.8
v -0.1 0.1 -0.8
v 0 0.1 -0.8
v 0.1 0.1 -0.8
v -0.4 0.1 -0.9
v -0.3 0.1 -0.9
v -0.2 0.1 -0.9
v -0.1 0.1 -0.9
v 0 0.1 -0.9
v 0.1 0.1 -0.9
v -0.3 0.1 -1
v -0.2 0.1 -1
v -0.1 0.1 -1
v 0 0.1 -1
v -0.3 0.1 -1.1
v -0.2 0.1 -1.1
v -0.1 0.1 -1.1
v 0 0.1 -1.1
v -0.2 0.2 -0.5
v -0.1 0.2 -0.5
v -0.3 0.2 -0.6
v -0.2 0.2 -0.6
v -0.1 0.2 -0.6
v 0 0.2 -0.6
v -0.4 0.2 -0.7
v -0.3 0.2 -0.7
v -0.2 0.2 -0.7
v -0.1 0.2 -0.7
v 0 0.2 -0.7
v 0.1 0.2 -0.7
v -0.4 0.2 -0.8
v -0.3 0.2 -0.8
v 0 0.2 -0.8
v 0.1 0.2 -0.8
v -0.2 0.2 -1.2
v -0.1 0.2 -1.2
v -0.2 0.2 -1.3
v -0.1 0.2 -1.3
v -0.2 0.3 -1.3
v -0.1 0.3 -1.3
v -0.2 0.3 -1.4
v -0.1 0.3 -1.4
v -0.2 0.3 -0.5
v -0.1 0.3 -0.5
v -0.3 0.3 -0.6
v -0.2 0.3 -0.6
v -0.1 0.3 -0.6
v 0 0.3 -0.6
v -0.3 0.3 -0.7
v -0.2 0.3 -0.7
v -0.1 0.3 -0.7
v 0 0.3 -0.7
v -0.2 0.4 -0.6
v -0.1 0.4 -0.6
v -0.4 0.4 -0.7
v -0.3 0.4 -0.7
v -0.2 0.4 -0.7
v -0.1 0.4 -0.7
v 0 0.4 -0.7
v 0.1 0.4 -0.7
v -0.4 0.4 -0.9
v -0.3 0.4 -0.9
v 0 0.4 -0.9
v 0.1 0.4 -0.9
v -0.3 0.4 -1
v -0.2 0.4 -1
v -0.1 0.4 -1
v 0 0.4 -1
v -0.3 0.4 -1.1
v -0.2 0.4 -1.1
v -0.1 0.4 -1.1
v 0 0.4 -1.1
v -0.2 0.4 -1.3
v -0.1 0.4 -1.3
v -0.2 0.4 -1.4
v -0.1 0.4 -1.4

# faces
f 4/1/1 2/1/1 1/1/1
f 5/1/1 4/1/1 3/1/1
f 6/1/1 2/1/1 4/1/1
f 6/1/1 4/1/1 5/1/1
f 7/3/1 6/3/1 5/3/1
f 8/3/1 6/3/1 7/3/1
f 13/1/1 10/1/1 9/1/1
f 14/1/1 10/1/1 13/1/1
f 17/1/1 12/1/1 11/1/1
f 18/1/1 12/1/1 17/1/1
f 19/1/1 17/1/1 16/1/1
f 20/1/1 17/1/1 19/1/1
f 21/1/1 15/1/1 14/1/1
f 21/1/1 14/1/1 13/1/1
f 22/1/1 15/1/1 21/1/1
f 23/1/1 15/1/1 22/1/1
f 24/1/1 22/1/1 21/1/1
f 25/3/1 23/3/1 22/3/1
f 25/1/1 22/1/1 24/1/1
f 26/3/1 23/3/1 25/3/1
f 34/2/1 28/2/1 27/2/1
f 35/1/1 29/1/1 28/1/1
f 35/2/1 28/2/1 34/2/1
f 36/1/1 29/1/1 35/1/1
f 37/1/1 31/1/1 30/1/1
f 38/4/1 32/4/1 31/4/1
f 38/1/1 31/1/1 37/1/1
f 39/4/1 32/4/1 38/4/1
f 41/1/1 34/1/1 33/1/1
f 42/1/1 34/1/1 41/1/1
f 43/1/1 39/1/1 38/1/1
f 45/1/1 41/1/1 40/1/1
f 46/1/1 41/1/1 45/1/1
f 48/1/1 44/1/1 43/1/1
f 48/1/1 43/1/1 38/1/1
f 49/1/1 44/1/1 48/1/1
f 51/1/1 47/1/1 46/1/1
f 52/1/1 47/1/1 51/1/1
f 53/1/1 49/1/1 48/1/1
f 54/3/1 50/3/1 49/3/1
f 54/1/1 49/1/1 53/1/1
f 55/3/1 50/3/1 54/3/1
f 56/2/2 57/2/2 63/2/2
f 57/1/2 58/1/2 64/1/2
f 63/2/2 57/2/2 64/2/2
f 64/1/2 58/1/2 65/1/2
f 59/1/2 60/1/2 66/1/2
f 60/4/2 61/4/2 67/4/2
f 66/1/2 60/1/2 67/1/2
f 67/4/2 61/4/2 68/4/2
f 62/1/2 63/1/2 70/1/2
f 70/1/2 63/1/2 71/1/2
f 67/1/2 68/1/2 72/1/2
f 69/1/2 70/1/2 74/1/2
f 74/1/2 70/1/2 75/1/2
f 72/1/2 73/1/2 77/1/2
f 67/1/2 72/1/2 77/1/2
f 77/1/2 73/1/2 78/1/2
f 75/1/2 76/1/2 80/1/2
f 80/1/2 76/1/2 81/1/2
f 77/1/2 78/1/2 82/1/2
f 78/3/2 79/3/2 83/3/2
f 82/1/2 78/1/2 83/1/2
f 83/3/2 79/3/2 84/3/2
f 85/1/2 86/1/2 89/1/2
f 89/1/2 86/1/2 90/1/2
f 87/1/2 88/1/2 93/1/2
f 93/1/2 88/1/2 94/1/2
f 92/1/2 93/1/2 95/1/2
f 95/1/2 93/1/2 96/1/2
f 90/1/2 91/1/2 97/1/2
f 89/1/2 90/1/2 97/1/2
f 97/1/2 91/1/2 98/1/2
f 98/1/2 91/1/2 99/1/2
f 97/1/2 98/1/2 100/1/2
f 98/3/2 99/3/2 101/3/2
f 100/1/2 98/1/2 101/1/2
f 101/3/2 99/3/2 102/3/2
f 103/1/2 104/1/2 106/1/2
f 105/1/2 106/1/2 107/1/2
f 106/1/2 104/1/2 108/1/2
f 107/1/2 106/1/2 108/1/2
f 107/3/2 108/3/2 109/3/2
f 109/3/2 108/3/2 110/3/2
f 113/1/3 112/1/3 111/1/3
f 114/1/3 112/1/3 113/1/3
f 118/1/3 116/1/3 115/1/3
f 119/1/3 116/1/3 118/1/3
f 121/1/3 118/1/3 117/1/3
f 122/1/3 118/1/3 121/1/3
f 123/1/3 120/1/3 119/1/3
f 124/1/3 120/1/3 123/1/3
f 125/1/3 123/1/3 122/1/3
f 126/1/3 123/1/3 125/1/3
f 131/1/3 128/1/3 127/1/3
f 132/3/3 129/3/3 128/3/3
f 132/1/3 128/1/3 131/1/3
f 133/3/3 129/3/3 132/3/3
f 135/1/3 131/1/3 130/1/3
f 136/1/3 131/1/3 135/1/3
f 137/1/3 133/1/3 132/1/3
f 138/1/3 133/1/3 137/1/3
f 139/2/3 135/2/3 134/2/3
f 140/2/3 135/2/3 139/2/3
f 144/1/3 141/1/3 140/1/3
f 145/1/3 141/1/3 144/1/3
f 146/1/3 143/1/3 142/1/3
f 147/1/3 143/1/3 146/1/3
f 148/1/3 146/1/3 145/1/3
f 149/3/3 147/3/3 146/3/3
f 149/1/3 146/1/3 148/1/3
f 150/3/3 147/3/3 149/3/3
f 153/1/3 152/1/3 151/1/3
f 154/1/3 152/1/3 153/1/3
f 157/1/3 156/1/3 155/1/3
f 158/1/3 156/1/3 157/1/3
f 161/1/3 160/1/3 159/1/3
f 162/1/3 160/1/3 161/1/3
f 165/1/3 164/1/3 163/1/3
f 166/1/3 164/1/3 165/1/3
f 167/1/4 168/1/4 170/1/4
f 168/3/4 169/3/4 171/3/4
f 170/1/4 168/1/4 171/1/4
f 171/3/4 169/3/4 172/3/4
f 173/1/4 174/1/4 176/1/4
f 174/3/4 175/3/4 177/3/4
f 176/1/4 174/1/4 177/1/4
f 177/3/4 175/3/4 178/3/4
f 179/1/4 180/1/4 181/1/4
f 181/1/4 180/1/4 182/1/4
f 183/1/4 184/1/4 185/1/4
f 185/1/4 184/1/4 186/1/4
f 187/1/4 188/1/4 190/1/4
f 188/3/4 189/3/4 191/3/4
f 190/1/4 188/1/4 191/1/4
f 191/3/4 189/3/4 192/3/4
f 193/1/4 194/1/4 196/1/4
f 194/3/4 195/3/4 197/3/4
f 196/1/4 194/1/4 197/1/4
f 197/3/4 195/3/4 198/3/4
f 199/4/4 200/4/4 202/4/4
f 200/1/4 201/1/4 203/1/4
f 202/4/4 200/4/4 203/4/4
f 203/1/4 201/1/4 204/1/4
f 205/1/4 206/1/4 207/1/4
f 207/1/4 206/1/4 208/1/4
f 209/3/4 210/3/4 211/3/4
f 211/3/4 210/3/4 212/3/4
f 215/2/5 214/2/5 213/2/5
f 216/2/5 214/2/5 215/2/5
f 218/1/5 216/1/5 215/1/5
f 219/1/5 216/1/5 218/1/5
f 221/1/5 219/1/5 218/1/5
f 221/1/5 220/1/5 219/1/5
f 221/1/5 218/1/5 217/1/5
f 222/1/5 220/1/5 221/1/5
f 223/1/5 220/1/5 222/1/5
f 224/1/5 220/1/5 223/1/5
f 225/1/5 223/1/5 222/1/5
f 226/1/5 223/1/5 225/1/5
f 227/4/5 226/4/5 225/4/5
f 228/4/5 226/4/5 227/4/5
f 232/1/5 230/1/5 229/1/5
f 233/1/5 230/1/5 232/1/5
f 236/1/5 232/1/5 231/1/5
f 237/1/5 232/1/5 236/1/5
f 238/1/5 234/1/5 233/1/5
f 239/1/5 234/1/5 238/1/5
f 241/1/5 237/1/5 236/1/5
f 241/1/5 236/1/5 235/1/5
f 242/1/5 237/1/5 241/1/5
f 243/1/5 237/1/5 242/1/5
f 244/1/5 240/1/5 239/1/5
f 244/1/5 239/1/5 238/1/5
f 245/1/5 240/1/5 244/1/5
f 246/1/5 240/1/5 245/1/5
f 251/1/5 248/1/5 247/1/5
f 252/1/5 248/1/5 251/1/5
f 253/1/5 250/1/5 249/1/5
f 254/1/5 250/1/5 253/1/5
f 258/1/5 256/1/5 255/1/5
f 259/1/5 256/1/5 258/1/5
f 262/1/5 258/1/5 257/1/5
f 263/1/5 258/1/5 262/1/5
f 264/1/5 260/1/5 259/1/5
f 265/1/5 260/1/5 264/1/5
f 267/1/5 262/1/5 261/1/5
f 268/1/5 262/1/5 267/1/5
f 269/1/5 266/1/5 265/1/5
f 270/1/5 266/1/5 269/1/5
f 273/1/5 272/1/5 271/1/5
f 274/1/5 272/1/5 273/1/5
f 277/3/5 276/3/5 275/3/5
f 278/3/5 276/3/5 277/3/5
f 279/1/6 280/1/6 282/1/6
f 282/1/6 280/1/6 283/1/6
f 281/1/6 282/1/6 285/1/6
f 285/1/6 282/1/6 286/1/6
f 283/1/6 284/1/6 287/1/6
f 287/1/6 284/1/6 288/1/6
f 289/1/6 290/1/6 293/1/6
f 293/1/6 290/1/6 294/1/6
f 291/3/6 292/3/6 297/3/6
f 292/1/6 293/1/6 298/1/6
f 297/3/6 292/3/6 298/3/6
f 293/1/6 294/1/6 298/1/6
f 294/1/6 295/1/6 298/1/6
f 295/3/6 296/3/6 299/3/6
f 298/1/6 295/1/6 299/1/6
f 299/3/6 296/3/6 300/3/6
f 298/1/6 299/1/6 301/1/6
f 301/1/6 299/1/6 302/1/6
f 302/1/6 299/1/6 303/1/6
f 303/1/6 299/1/6 304/1/6
f 301/3/6 302/3/6 305/3/6
f 302/1/6 303/1/6 306/1/6
f 305/3/6 302/3/6 306/3/6
f 303/3/6 304/3/6 307/3/6
f 306/1/6 303/1/6 307/1/6
f 307/3/6 304/3/6 308/3/6
f 306/1/6 307/1/6 309/1/6
f 309/1/6 307/1/6 310/1/6
f 309/3/6 310/3/6 311/3/6
f 311/3/6 310/3/6 312/3/6
