# MagicaVoxel @ Ephtracy

# group
o 

# material
mtllib SPine2.mtl
usemtl palette

# normals
vn -1 0 0
vn 1 0 0
vn 0 0 1
vn 0 0 -1
vn 0 -1 0
vn 0 1 0

# texcoords
vt 0.966797 0.5
vt 0.974609 0.5
vt 0.982422 0.5
vt 0.986328 0.5

# verts
v -0.4 0.1 -0.8
v -0.4 0.1 -0.9
v -0.4 0.2 -0.7
v -0.4 0.2 -0.8
v -0.4 0.3 -0.7
v -0.4 0.3 -0.9
v -0.4 0.4 -0.7
v -0.4 0.4 -0.9
v -0.3 0 -0.9
v -0.3 0 -1
v -0.3 0.1 -0.7
v -0.3 0.1 -0.8
v -0.3 0.1 -0.9
v -0.3 0.1 -1
v -0.3 0.1 -1.1
v -0.3 0.2 -0.6
v -0.3 0.2 -0.7
v -0.3 0.2 -0.8
v -0.3 0.3 -0.6
v -0.3 0.3 -0.7
v -0.3 0.3 -0.9
v -0.3 0.4 -0.9
v -0.3 0.4 -1.1
v -0.2 0 -0.7
v -0.2 0 -0.8
v -0.2 0 -0.9
v -0.2 0 -1
v -0.2 0 -1.1
v -0.2 0 -1.2
v -0.2 0.1 -0.6
v -0.2 0.1 -0.7
v -0.2 0.1 -0.8
v -0.2 0.1 -0.9
v -0.2 0.1 -1
v -0.2 0.1 -1.1
v -0.2 0.1 -1.2
v -0.2 0.1 -1.7
v -0.2 0.1 -1.9
v -0.2 0.1 -2
v -0.2 0.2 -0.5
v -0.2 0.2 -0.6
v -0.2 0.2 -0.7
v -0.2 0.2 -1.2
v -0.2 0.2 -1.4
v -0.2 0.2 -1.5
v -0.2 0.2 -1.6
v -0.2 0.2 -1.7
v -0.2 0.2 -1.8
v -0.2 0.2 -1.9
v -0.2 0.2 -2
v -0.2 0.3 -0.5
v -0.2 0.3 -0.6
v -0.2 0.3 -0.7
v -0.2 0.3 -1.4
v -0.2 0.3 -1.5
v -0.2 0.3 -1.6
v -0.2 0.3 -1.7
v -0.2 0.3 -1.8
v -0.2 0.3 -1.9
v -0.2 0.4 -0.6
v -0.2 0.4 -0.7
v -0.2 0.4 -1.1
v -0.2 0.4 -1.6
v -0.2 0.4 -1.7
v -0.1 0 -0.7
v -0.1 0 -0.8
v -0.1 0 -0.9
v -0.1 0 -1
v -0.1 0 -1.1
v -0.1 0 -1.2
v -0.1 0.1 -0.6
v -0.1 0.1 -0.7
v -0.1 0.1 -0.8
v -0.1 0.1 -0.9
v -0.1 0.1 -1
v -0.1 0.1 -1.1
v -0.1 0.1 -1.2
v -0.1 0.1 -1.7
v -0.1 0.1 -1.9
v -0.1 0.1 -2
v -0.1 0.2 -0.5
v -0.1 0.2 -0.6
v -0.1 0.2 -0.7
v -0.1 0.2 -1.2
v -0.1 0.2 -1.4
v -0.1 0.2 -1.5
v -0.1 0.2 -1.6
v -0.1 0.2 -1.7
v -0.1 0.2 -1.8
v -0.1 0.2 -1.9
v -0.1 0.2 -2
v -0.1 0.3 -0.5
v -0.1 0.3 -0.6
v -0.1 0.3 -0.7
v -0.1 0.3 -1.4
v -0.1 0.3 -1.5
v -0.1 0.3 -1.6
v -0.1 0.3 -1.7
v -0.1 0.3 -1.8
v -0.1 0.3 -1.9
v -0.1 0.4 -0.6
v -0.1 0.4 -0.7
v -0.1 0.4 -1.1
v -0.1 0.4 -1.6
v -0.1 0.4 -1.7
v 0 0 -0.9
v 0 0 -1
v 0 0.1 -0.7
v 0 0.1 -0.8
v 0 0.1 -0.9
v 0 0.1 -1
v 0 0.1 -1.1
v 0 0.2 -0.6
v 0 0.2 -0.7
v 0 0.2 -0.8
v 0 0.3 -0.6
v 0 0.3 -0.7
v 0 0.3 -0.9
v 0 0.4 -0.9
v 0 0.4 -1.1
v 0.1 0.1 -0.8
v 0.1 0.1 -0.9
v 0.1 0.2 -0.7
v 0.1 0.2 -0.8
v 0.1 0.3 -0.7
v 0.1 0.3 -0.9
v 0.1 0.4 -0.7
v 0.1 0.4 -0.9
v -0.2 0.2 -0.5
v -0.2 0.3 -0.5
v -0.1 0.2 -0.5
v -0.1 0.3 -0.5
v -0.3 0.2 -0.6
v -0.3 0.3 -0.6
v -0.2 0.1 -0.6
v -0.2 0.2 -0.6
v -0.2 0.3 -0.6
v -0.2 0.4 -0.6
v -0.1 0.1 -0.6
v -0.1 0.2 -0.6
v -0.1 0.3 -0.6
v -0.1 0.4 -0.6
v 0 0.2 -0.6
v 0 0.3 -0.6
v -0.4 0.2 -0.7
v -0.4 0.3 -0.7
v -0.4 0.4 -0.7
v -0.3 0.1 -0.7
v -0.3 0.2 -0.7
v -0.3 0.3 -0.7
v -0.3 0.4 -0.7
v -0.2 0 -0.7
v -0.2 0.1 -0.7
v -0.2 0.2 -0.7
v -0.2 0.3 -0.7
v -0.2 0.4 -0.7
v -0.1 0 -0.7
v -0.1 0.1 -0.7
v -0.1 0.2 -0.7
v -0.1 0.3 -0.7
v -0.1 0.4 -0.7
v 0 0.1 -0.7
v 0 0.2 -0.7
v 0 0.3 -0.7
v 0 0.4 -0.7
v 0.1 0.2 -0.7
v 0.1 0.3 -0.7
v 0.1 0.4 -0.7
v -0.4 0.1 -0.8
v -0.4 0.2 -0.8
v -0.3 0.1 -0.8
v -0.3 0.2 -0.8
v 0 0.1 -0.8
v 0 0.2 -0.8
v 0.1 0.1 -0.8
v 0.1 0.2 -0.8
v -0.3 0 -0.9
v -0.3 0.1 -0.9
v -0.2 0 -0.9
v -0.2 0.1 -0.9
v -0.1 0 -0.9
v -0.1 0.1 -0.9
v 0 0 -0.9
v 0 0.1 -0.9
v -0.2 0.2 -1.6
v -0.2 0.3 -1.6
v -0.1 0.2 -1.6
v -0.1 0.3 -1.6
v -0.2 0.1 -1.7
v -0.2 0.2 -1.7
v -0.1 0.1 -1.7
v -0.1 0.2 -1.7
v -0.4 0.1 -0.9
v -0.4 0.3 -0.9
v -0.4 0.4 -0.9
v -0.3 0.1 -0.9
v -0.3 0.3 -0.9
v -0.3 0.4 -0.9
v 0 0.1 -0.9
v 0 0.3 -0.9
v 0 0.4 -0.9
v 0.1 0.1 -0.9
v 0.1 0.3 -0.9
v 0.1 0.4 -0.9
v -0.3 0 -1
v -0.3 0.1 -1
v -0.2 0 -1
v -0.2 0.1 -1
v -0.1 0 -1
v -0.1 0.1 -1
v 0 0 -1
v 0 0.1 -1
v -0.3 0.1 -1.1
v -0.3 0.4 -1.1
v -0.2 0.1 -1.1
v -0.2 0.4 -1.1
v -0.1 0.1 -1.1
v -0.1 0.4 -1.1
v 0 0.1 -1.1
v 0 0.4 -1.1
v -0.2 0 -1.2
v -0.2 0.1 -1.2
v -0.2 0.2 -1.2
v -0.1 0 -1.2
v -0.1 0.1 -1.2
v -0.1 0.2 -1.2
v -0.2 0.2 -1.5
v -0.2 0.3 -1.5
v -0.1 0.2 -1.5
v -0.1 0.3 -1.5
v -0.2 0.3 -1.7
v -0.2 0.4 -1.7
v -0.1 0.3 -1.7
v -0.1 0.4 -1.7
v -0.2 0.2 -1.9
v -0.2 0.3 -1.9
v -0.1 0.2 -1.9
v -0.1 0.3 -1.9
v -0.2 0.1 -2
v -0.2 0.2 -2
v -0.1 0.1 -2
v -0.1 0.2 -2
v -0.2 0 -0.7
v -0.1 0 -0.7
v -0.2 0 -0.8
v -0.1 0 -0.8
v -0.3 0 -0.9
v -0.2 0 -0.9
v -0.1 0 -0.9
v 0 0 -0.9
v -0.3 0 -1
v -0.2 0 -1
v -0.1 0 -1
v 0 0 -1
v -0.2 0 -1.1
v -0.1 0 -1.1
v -0.2 0 -1.2
v -0.1 0 -1.2
v -0.2 0.1 -0.6
v -0.1 0.1 -0.6
v -0.3 0.1 -0.7
v -0.2 0.1 -0.7
v -0.1 0.1 -0.7
v 0 0.1 -0.7
v -0.4 0.1 -0.8
v -0.3 0.1 -0.8
v -0.2 0.1 -0.8
v -0.1 0.1 -0.8
v 0 0.1 -0.8
v 0.1 0.1 -0.8
v -0.4 0.1 -0.9
v -0.3 0.1 -0.9
v -0.2 0.1 -0.9
v -0.1 0.1 -0.9
v 0 0.1 -0.9
v 0.1 0.1 -0.9
v -0.3 0.1 -1
v -0.2 0.1 -1
v -0.1 0.1 -1
v 0 0.1 -1
v -0.3 0.1 -1.1
v -0.2 0.1 -1.1
v -0.1 0.1 -1.1
v 0 0.1 -1.1
v -0.2 0.1 -1.7
v -0.1 0.1 -1.7
v -0.2 0.1 -1.9
v -0.1 0.1 -1.9
v -0.2 0.1 -2
v -0.1 0.1 -2
v -0.2 0.2 -0.5
v -0.1 0.2 -0.5
v -0.3 0.2 -0.6
v -0.2 0.2 -0.6
v -0.1 0.2 -0.6
v 0 0.2 -0.6
v -0.4 0.2 -0.7
v -0.3 0.2 -0.7
v -0.2 0.2 -0.7
v -0.1 0.2 -0.7
v 0 0.2 -0.7
v 0.1 0.2 -0.7
v -0.4 0.2 -0.8
v -0.3 0.2 -0.8
v 0 0.2 -0.8
v 0.1 0.2 -0.8
v -0.2 0.2 -1.2
v -0.1 0.2 -1.2
v -0.2 0.2 -1.4
v -0.1 0.2 -1.4
v -0.2 0.2 -1.5
v -0.1 0.2 -1.5
v -0.2 0.2 -1.6
v -0.1 0.2 -1.6
v -0.2 0.2 -1.7
v -0.1 0.2 -1.7
v -0.2 0.3 -1.5
v -0.1 0.3 -1.5
v -0.2 0.3 -1.6
v -0.1 0.3 -1.6
v -0.2 0.2 -1.9
v -0.1 0.2 -1.9
v -0.2 0.2 -2
v -0.1 0.2 -2
v -0.2 0.3 -0.5
v -0.1 0.3 -0.5
v -0.3 0.3 -0.6
v -0.2 0.3 -0.6
v -0.1 0.3 -0.6
v 0 0.3 -0.6
v -0.3 0.3 -0.7
v -0.2 0.3 -0.7
v -0.1 0.3 -0.7
v 0 0.3 -0.7
v -0.2 0.3 -1.7
v -0.1 0.3 -1.7
v -0.2 0.3 -1.8
v -0.1 0.3 -1.8
v -0.2 0.3 -1.9
v -0.1 0.3 -1.9
v -0.2 0.4 -0.6
v -0.1 0.4 -0.6
v -0.4 0.4 -0.7
v -0.3 0.4 -0.7
v -0.2 0.4 -0.7
v -0.1 0.4 -0.7
v 0 0.4 -0.7
v 0.1 0.4 -0.7
v -0.4 0.4 -0.9
v -0.3 0.4 -0.9
v 0 0.4 -0.9
v 0.1 0.4 -0.9
v -0.3 0.4 -1.1
v -0.2 0.4 -1.1
v -0.1 0.4 -1.1
v 0 0.4 -1.1
v -0.2 0.4 -1.6
v -0.1 0.4 -1.6
v -0.2 0.4 -1.7
v -0.1 0.4 -1.7

# faces
f 4/1/1 2/1/1 1/1/1
f 5/1/1 4/1/1 3/1/1
f 6/1/1 2/1/1 4/1/1
f 6/1/1 4/1/1 5/1/1
f 7/3/1 6/3/1 5/3/1
f 8/3/1 6/3/1 7/3/1
f 13/1/1 10/1/1 9/1/1
f 14/1/1 10/1/1 13/1/1
f 17/1/1 12/1/1 11/1/1
f 18/1/1 12/1/1 17/1/1
f 19/1/1 17/1/1 16/1/1
f 20/1/1 17/1/1 19/1/1
f 21/1/1 15/1/1 14/1/1
f 21/1/1 14/1/1 13/1/1
f 22/1/1 15/1/1 21/1/1
f 23/1/1 15/1/1 22/1/1
f 31/2/1 25/2/1 24/2/1
f 32/1/1 26/1/1 25/1/1
f 32/2/1 25/2/1 31/2/1
f 33/1/1 26/1/1 32/1/1
f 34/1/1 28/1/1 27/1/1
f 35/4/1 29/4/1 28/4/1
f 35/1/1 28/1/1 34/1/1
f 36/4/1 29/4/1 35/4/1
f 41/1/1 31/1/1 30/1/1
f 42/1/1 31/1/1 41/1/1
f 43/1/1 36/1/1 35/1/1
f 47/1/1 38/1/1 37/1/1
f 48/1/1 38/1/1 47/1/1
f 49/4/1 39/4/1 38/4/1
f 49/1/1 38/1/1 48/1/1
f 50/4/1 39/4/1 49/4/1
f 51/4/1 41/4/1 40/4/1
f 52/4/1 41/4/1 51/4/1
f 54/4/1 45/4/1 44/4/1
f 54/1/1 44/1/1 43/1/1
f 55/4/1 45/4/1 54/4/1
f 56/1/1 48/1/1 47/1/1
f 56/1/1 47/1/1 46/1/1
f 57/1/1 48/1/1 56/1/1
f 58/4/1 49/4/1 48/4/1
f 58/1/1 48/1/1 57/1/1
f 59/4/1 49/4/1 58/4/1
f 60/1/1 53/1/1 52/1/1
f 61/1/1 53/1/1 60/1/1
f 62/1/1 55/1/1 54/1/1
f 62/1/1 43/1/1 35/1/1
f 62/1/1 56/1/1 55/1/1
f 62/1/1 54/1/1 43/1/1
f 63/4/1 57/4/1 56/4/1
f 63/1/1 56/1/1 62/1/1
f 64/4/1 57/4/1 63/4/1
f 65/2/2 66/2/2 72/2/2
f 66/1/2 67/1/2 73/1/2
f 72/2/2 66/2/2 73/2/2
f 73/1/2 67/1/2 74/1/2
f 68/1/2 69/1/2 75/1/2
f 69/4/2 70/4/2 76/4/2
f 75/1/2 69/1/2 76/1/2
f 76/4/2 70/4/2 77/4/2
f 71/1/2 72/1/2 82/1/2
f 82/1/2 72/1/2 83/1/2
f 76/1/2 77/1/2 84/1/2
f 78/1/2 79/1/2 88/1/2
f 88/1/2 79/1/2 89/1/2
f 79/4/2 80/4/2 90/4/2
f 89/1/2 79/1/2 90/1/2
f 90/4/2 80/4/2 91/4/2
f 81/4/2 82/4/2 92/4/2
f 92/4/2 82/4/2 93/4/2
f 85/4/2 86/4/2 95/4/2
f 84/1/2 85/1/2 95/1/2
f 95/4/2 86/4/2 96/4/2
f 88/1/2 89/1/2 97/1/2
f 87/1/2 88/1/2 97/1/2
f 97/1/2 89/1/2 98/1/2
f 89/4/2 90/4/2 99/4/2
f 98/1/2 89/1/2 99/1/2
f 99/4/2 90/4/2 100/4/2
f 93/1/2 94/1/2 101/1/2
f 101/1/2 94/1/2 102/1/2
f 95/1/2 96/1/2 103/1/2
f 76/1/2 84/1/2 103/1/2
f 96/1/2 97/1/2 103/1/2
f 84/1/2 95/1/2 103/1/2
f 97/4/2 98/4/2 104/4/2
f 103/1/2 97/1/2 104/1/2
f 104/4/2 98/4/2 105/4/2
f 106/1/2 107/1/2 110/1/2
f 110/1/2 107/1/2 111/1/2
f 108/1/2 109/1/2 114/1/2
f 114/1/2 109/1/2 115/1/2
f 113/1/2 114/1/2 116/1/2
f 116/1/2 114/1/2 117/1/2
f 111/1/2 112/1/2 118/1/2
f 110/1/2 111/1/2 118/1/2
f 118/1/2 112/1/2 119/1/2
f 119/1/2 112/1/2 120/1/2
f 121/1/2 122/1/2 124/1/2
f 123/1/2 124/1/2 125/1/2
f 124/1/2 122/1/2 126/1/2
f 125/1/2 124/1/2 126/1/2
f 125/3/2 126/3/2 127/3/2
f 127/3/2 126/3/2 128/3/2
f 131/4/3 130/4/3 129/4/3
f 132/4/3 130/4/3 131/4/3
f 136/1/3 134/1/3 133/1/3
f 137/1/3 134/1/3 136/1/3
f 139/1/3 136/1/3 135/1/3
f 140/1/3 136/1/3 139/1/3
f 141/1/3 138/1/3 137/1/3
f 142/1/3 138/1/3 141/1/3
f 143/1/3 141/1/3 140/1/3
f 144/1/3 141/1/3 143/1/3
f 149/1/3 146/1/3 145/1/3
f 150/3/3 147/3/3 146/3/3
f 150/1/3 146/1/3 149/1/3
f 151/3/3 147/3/3 150/3/3
f 153/1/3 149/1/3 148/1/3
f 154/1/3 149/1/3 153/1/3
f 155/1/3 151/1/3 150/1/3
f 156/1/3 151/1/3 155/1/3
f 157/2/3 153/2/3 152/2/3
f 158/2/3 153/2/3 157/2/3
f 162/1/3 159/1/3 158/1/3
f 163/1/3 159/1/3 162/1/3
f 164/1/3 161/1/3 160/1/3
f 165/1/3 161/1/3 164/1/3
f 166/1/3 164/1/3 163/1/3
f 167/3/3 165/3/3 164/3/3
f 167/1/3 164/1/3 166/1/3
f 168/3/3 165/3/3 167/3/3
f 171/1/3 170/1/3 169/1/3
f 172/1/3 170/1/3 171/1/3
f 175/1/3 174/1/3 173/1/3
f 176/1/3 174/1/3 175/1/3
f 179/1/3 178/1/3 177/1/3
f 180/1/3 178/1/3 179/1/3
f 183/1/3 182/1/3 181/1/3
f 184/1/3 182/1/3 183/1/3
f 187/1/3 186/1/3 185/1/3
f 188/1/3 186/1/3 187/1/3
f 191/1/3 190/1/3 189/1/3
f 192/1/3 190/1/3 191/1/3
f 193/1/4 194/1/4 196/1/4
f 194/3/4 195/3/4 197/3/4
f 196/1/4 194/1/4 197/1/4
f 197/3/4 195/3/4 198/3/4
f 199/1/4 200/1/4 202/1/4
f 200/3/4 201/3/4 203/3/4
f 202/1/4 200/1/4 203/1/4
f 203/3/4 201/3/4 204/3/4
f 205/1/4 206/1/4 207/1/4
f 207/1/4 206/1/4 208/1/4
f 209/1/4 210/1/4 211/1/4
f 211/1/4 210/1/4 212/1/4
f 213/1/4 214/1/4 215/1/4
f 215/1/4 214/1/4 216/1/4
f 217/1/4 218/1/4 219/1/4
f 219/1/4 218/1/4 220/1/4
f 221/4/4 222/4/4 224/4/4
f 222/1/4 223/1/4 225/1/4
f 224/4/4 222/4/4 225/4/4
f 225/1/4 223/1/4 226/1/4
f 227/4/4 228/4/4 229/4/4
f 229/4/4 228/4/4 230/4/4
f 231/4/4 232/4/4 233/4/4
f 233/4/4 232/4/4 234/4/4
f 235/4/4 236/4/4 237/4/4
f 237/4/4 236/4/4 238/4/4
f 239/4/4 240/4/4 241/4/4
f 241/4/4 240/4/4 242/4/4
f 245/2/5 244/2/5 243/2/5
f 246/2/5 244/2/5 245/2/5
f 248/1/5 246/1/5 245/1/5
f 249/1/5 246/1/5 248/1/5
f 251/1/5 249/1/5 248/1/5
f 251/1/5 250/1/5 249/1/5
f 251/1/5 248/1/5 247/1/5
f 252/1/5 250/1/5 251/1/5
f 253/1/5 250/1/5 252/1/5
f 254/1/5 250/1/5 253/1/5
f 255/1/5 253/1/5 252/1/5
f 256/1/5 253/1/5 255/1/5
f 257/4/5 256/4/5 255/4/5
f 258/4/5 256/4/5 257/4/5
f 262/1/5 260/1/5 259/1/5
f 263/1/5 260/1/5 262/1/5
f 266/1/5 262/1/5 261/1/5
f 267/1/5 262/1/5 266/1/5
f 268/1/5 264/1/5 263/1/5
f 269/1/5 264/1/5 268/1/5
f 271/1/5 267/1/5 266/1/5
f 271/1/5 266/1/5 265/1/5
f 272/1/5 267/1/5 271/1/5
f 273/1/5 267/1/5 272/1/5
f 274/1/5 270/1/5 269/1/5
f 274/1/5 269/1/5 268/1/5
f 275/1/5 270/1/5 274/1/5
f 276/1/5 270/1/5 275/1/5
f 281/1/5 278/1/5 277/1/5
f 282/1/5 278/1/5 281/1/5
f 283/1/5 280/1/5 279/1/5
f 284/1/5 280/1/5 283/1/5
f 287/1/5 286/1/5 285/1/5
f 288/1/5 286/1/5 287/1/5
f 289/4/5 288/4/5 287/4/5
f 290/4/5 288/4/5 289/4/5
f 294/4/5 292/4/5 291/4/5
f 295/4/5 292/4/5 294/4/5
f 298/1/5 294/1/5 293/1/5
f 299/1/5 294/1/5 298/1/5
f 300/1/5 296/1/5 295/1/5
f 301/1/5 296/1/5 300/1/5
f 303/1/5 298/1/5 297/1/5
f 304/1/5 298/1/5 303/1/5
f 305/1/5 302/1/5 301/1/5
f 306/1/5 302/1/5 305/1/5
f 309/1/5 308/1/5 307/1/5
f 310/1/5 308/1/5 309/1/5
f 311/4/5 310/4/5 309/4/5
f 312/4/5 310/4/5 311/4/5
f 315/1/5 314/1/5 313/1/5
f 316/1/5 314/1/5 315/1/5
f 319/1/5 318/1/5 317/1/5
f 320/1/5 318/1/5 319/1/5
f 321/4/6 322/4/6 323/4/6
f 323/4/6 322/4/6 324/4/6
f 325/4/6 326/4/6 328/4/6
f 328/4/6 326/4/6 329/4/6
f 327/1/6 328/1/6 331/1/6
f 331/1/6 328/1/6 332/1/6
f 329/1/6 330/1/6 333/1/6
f 333/1/6 330/1/6 334/1/6
f 335/1/6 336/1/6 337/1/6
f 337/1/6 336/1/6 338/1/6
f 337/4/6 338/4/6 339/4/6
f 339/4/6 338/4/6 340/4/6
f 341/1/6 342/1/6 345/1/6
f 345/1/6 342/1/6 346/1/6
f 343/3/6 344/3/6 349/3/6
f 344/1/6 345/1/6 350/1/6
f 349/3/6 344/3/6 350/3/6
f 345/1/6 346/1/6 350/1/6
f 346/1/6 347/1/6 350/1/6
f 347/3/6 348/3/6 351/3/6
f 350/1/6 347/1/6 351/1/6
f 351/3/6 348/3/6 352/3/6
f 350/1/6 351/1/6 353/1/6
f 353/1/6 351/1/6 354/1/6
f 354/1/6 351/1/6 355/1/6
f 355/1/6 351/1/6 356/1/6
f 354/1/6 355/1/6 357/1/6
f 357/1/6 355/1/6 358/1/6
f 357/4/6 358/4/6 359/4/6
f 359/4/6 358/4/6 360/4/6
